<mxfile host="app.diagrams.net" modified="2023-03-24T18:05:44.821Z" agent="Mozilla/5.0 (Windows NT 10.0; Win64; x64) AppleWebKit/537.36 (KHTML, like Gecko) Chrome/111.0.0.0 Safari/537.36 Edg/111.0.1661.51" etag="cKNcdHcn5S-GGYF9azTR" version="21.1.1" type="device">
  <diagram name="Страница 1" id="02qrhVbGRuM05MhGeuV5">
    <mxGraphModel dx="792" dy="1138" grid="1" gridSize="10" guides="1" tooltips="1" connect="1" arrows="1" fold="1" page="1" pageScale="1" pageWidth="827" pageHeight="1169" math="0" shadow="0">
      <root>
        <mxCell id="0" />
        <mxCell id="1" parent="0" />
        <mxCell id="8-nY73ToUyD-Y4a7UrSt-3" style="edgeStyle=orthogonalEdgeStyle;rounded=0;orthogonalLoop=1;jettySize=auto;html=1;entryX=0.5;entryY=0;entryDx=0;entryDy=0;" edge="1" parent="1" source="8-nY73ToUyD-Y4a7UrSt-1" target="8-nY73ToUyD-Y4a7UrSt-2">
          <mxGeometry relative="1" as="geometry" />
        </mxCell>
        <mxCell id="8-nY73ToUyD-Y4a7UrSt-1" value="Начало&lt;br&gt;addTrain" style="ellipse;whiteSpace=wrap;html=1;" vertex="1" parent="1">
          <mxGeometry x="350" y="40" width="120" height="80" as="geometry" />
        </mxCell>
        <mxCell id="8-nY73ToUyD-Y4a7UrSt-5" style="edgeStyle=orthogonalEdgeStyle;rounded=0;orthogonalLoop=1;jettySize=auto;html=1;entryX=0.5;entryY=0;entryDx=0;entryDy=0;" edge="1" parent="1" source="8-nY73ToUyD-Y4a7UrSt-2" target="8-nY73ToUyD-Y4a7UrSt-4">
          <mxGeometry relative="1" as="geometry" />
        </mxCell>
        <mxCell id="8-nY73ToUyD-Y4a7UrSt-2" value="&lt;div style=&quot;font-size: 14px; line-height: 19px;&quot;&gt;&lt;span style=&quot;background-color: rgb(255, 255, 255);&quot;&gt;fseek(file, 0, SEEK_END)&lt;/span&gt;&lt;/div&gt;" style="rounded=0;whiteSpace=wrap;html=1;" vertex="1" parent="1">
          <mxGeometry x="320" y="150" width="180" height="60" as="geometry" />
        </mxCell>
        <mxCell id="8-nY73ToUyD-Y4a7UrSt-7" style="edgeStyle=orthogonalEdgeStyle;rounded=0;orthogonalLoop=1;jettySize=auto;html=1;" edge="1" parent="1" source="8-nY73ToUyD-Y4a7UrSt-4" target="8-nY73ToUyD-Y4a7UrSt-6">
          <mxGeometry relative="1" as="geometry" />
        </mxCell>
        <mxCell id="8-nY73ToUyD-Y4a7UrSt-4" value="newTrain = setTrain()" style="rounded=0;whiteSpace=wrap;html=1;" vertex="1" parent="1">
          <mxGeometry x="350" y="230" width="120" height="60" as="geometry" />
        </mxCell>
        <mxCell id="8-nY73ToUyD-Y4a7UrSt-9" style="edgeStyle=orthogonalEdgeStyle;rounded=0;orthogonalLoop=1;jettySize=auto;html=1;" edge="1" parent="1" source="8-nY73ToUyD-Y4a7UrSt-6" target="8-nY73ToUyD-Y4a7UrSt-8">
          <mxGeometry relative="1" as="geometry" />
        </mxCell>
        <mxCell id="8-nY73ToUyD-Y4a7UrSt-6" value="&lt;div style=&quot;font-size: 14px; line-height: 19px;&quot;&gt;&lt;span style=&quot;background-color: rgb(255, 255, 255);&quot;&gt;fwrite(&amp;amp;newTrain, sizeof(struct TRAIN), 1, file)&lt;/span&gt;&lt;/div&gt;" style="rounded=0;whiteSpace=wrap;html=1;" vertex="1" parent="1">
          <mxGeometry x="260" y="310" width="300" height="60" as="geometry" />
        </mxCell>
        <mxCell id="8-nY73ToUyD-Y4a7UrSt-8" value="Конец" style="ellipse;whiteSpace=wrap;html=1;" vertex="1" parent="1">
          <mxGeometry x="350" y="390" width="120" height="80" as="geometry" />
        </mxCell>
      </root>
    </mxGraphModel>
  </diagram>
</mxfile>
